<mxfile host="app.diagrams.net" modified="2021-07-02T11:37:13.597Z" agent="5.0 (Macintosh; Intel Mac OS X 10_15_7) AppleWebKit/537.36 (KHTML, like Gecko) Chrome/91.0.4472.106 Safari/537.36" etag="DpAeQj52gEoM4O9H7bOl" version="14.8.3" type="github">
  <diagram id="W9jGRxqbMgRnqZbA-XCd" name="Page-1">
    <mxGraphModel dx="2852" dy="2298" grid="1" gridSize="10" guides="1" tooltips="1" connect="1" arrows="1" fold="1" page="1" pageScale="1" pageWidth="827" pageHeight="1169" math="0" shadow="0">
      <root>
        <mxCell id="0" />
        <mxCell id="1" parent="0" />
        <mxCell id="3qNBonYtIeFeS5FYhXrz-300" value="" style="whiteSpace=wrap;html=1;dashed=1;strokeColor=#000000;fillColor=none;fontColor=#666666;align=center;" parent="1" vertex="1">
          <mxGeometry x="-800" y="-260" width="1630" height="1110" as="geometry" />
        </mxCell>
        <mxCell id="3qNBonYtIeFeS5FYhXrz-282" value="" style="whiteSpace=wrap;html=1;dashed=1;strokeColor=#000000;fillColor=none;fontColor=#666666;align=center;" parent="1" vertex="1">
          <mxGeometry x="-785" y="-870" width="905" height="470" as="geometry" />
        </mxCell>
        <mxCell id="3qNBonYtIeFeS5FYhXrz-176" style="edgeStyle=orthogonalEdgeStyle;rounded=0;orthogonalLoop=1;jettySize=auto;html=1;strokeColor=#666666;fontColor=#666666;" parent="1" source="3qNBonYtIeFeS5FYhXrz-162" target="3qNBonYtIeFeS5FYhXrz-175" edge="1">
          <mxGeometry relative="1" as="geometry" />
        </mxCell>
        <mxCell id="3qNBonYtIeFeS5FYhXrz-162" value="&lt;b&gt;&lt;font color=&quot;#333333&quot;&gt;e_1(A)&lt;/font&gt;&lt;/b&gt;" style="ellipse;whiteSpace=wrap;html=1;aspect=fixed;strokeColor=#d79b00;fillColor=#CCFFCC;" parent="1" vertex="1">
          <mxGeometry x="274" y="212.5" width="70" height="70" as="geometry" />
        </mxCell>
        <mxCell id="3qNBonYtIeFeS5FYhXrz-166" style="edgeStyle=orthogonalEdgeStyle;rounded=0;orthogonalLoop=1;jettySize=auto;html=1;strokeColor=#666666;fontColor=#666666;" parent="1" source="3qNBonYtIeFeS5FYhXrz-163" target="3qNBonYtIeFeS5FYhXrz-162" edge="1">
          <mxGeometry relative="1" as="geometry">
            <Array as="points">
              <mxPoint x="539" y="162.5" />
              <mxPoint x="309" y="162.5" />
            </Array>
          </mxGeometry>
        </mxCell>
        <mxCell id="3qNBonYtIeFeS5FYhXrz-167" style="edgeStyle=orthogonalEdgeStyle;rounded=0;orthogonalLoop=1;jettySize=auto;html=1;strokeColor=#666666;fontColor=#666666;" parent="1" source="3qNBonYtIeFeS5FYhXrz-163" target="3qNBonYtIeFeS5FYhXrz-164" edge="1">
          <mxGeometry relative="1" as="geometry">
            <Array as="points">
              <mxPoint x="539" y="162.5" />
              <mxPoint x="459" y="162.5" />
            </Array>
          </mxGeometry>
        </mxCell>
        <mxCell id="3qNBonYtIeFeS5FYhXrz-168" style="edgeStyle=orthogonalEdgeStyle;rounded=0;orthogonalLoop=1;jettySize=auto;html=1;strokeColor=#666666;fontColor=#666666;" parent="1" source="3qNBonYtIeFeS5FYhXrz-163" target="3qNBonYtIeFeS5FYhXrz-165" edge="1">
          <mxGeometry relative="1" as="geometry">
            <Array as="points">
              <mxPoint x="539" y="162.5" />
              <mxPoint x="619" y="162.5" />
            </Array>
          </mxGeometry>
        </mxCell>
        <mxCell id="3qNBonYtIeFeS5FYhXrz-170" style="edgeStyle=orthogonalEdgeStyle;rounded=0;orthogonalLoop=1;jettySize=auto;html=1;strokeColor=#666666;fontColor=#666666;" parent="1" source="3qNBonYtIeFeS5FYhXrz-163" target="3qNBonYtIeFeS5FYhXrz-169" edge="1">
          <mxGeometry relative="1" as="geometry">
            <Array as="points">
              <mxPoint x="539" y="162.5" />
              <mxPoint x="779" y="162.5" />
            </Array>
          </mxGeometry>
        </mxCell>
        <mxCell id="3qNBonYtIeFeS5FYhXrz-163" value="&lt;b&gt;&lt;font color=&quot;#333333&quot;&gt;p_A&lt;/font&gt;&lt;/b&gt;" style="ellipse;whiteSpace=wrap;html=1;aspect=fixed;strokeColor=#d79b00;fillColor=#ffe6cc;" parent="1" vertex="1">
          <mxGeometry x="504" y="72.49999999999989" width="70" height="70" as="geometry" />
        </mxCell>
        <mxCell id="3qNBonYtIeFeS5FYhXrz-164" value="&lt;b&gt;&lt;font&gt;e_2(A)&lt;/font&gt;&lt;/b&gt;" style="ellipse;whiteSpace=wrap;html=1;aspect=fixed;strokeColor=none;fillColor=#E6E6E6;fontColor=#B3B3B3;" parent="1" vertex="1">
          <mxGeometry x="424" y="212.5" width="70" height="70" as="geometry" />
        </mxCell>
        <mxCell id="3qNBonYtIeFeS5FYhXrz-186" style="edgeStyle=orthogonalEdgeStyle;rounded=0;orthogonalLoop=1;jettySize=auto;html=1;strokeColor=#666666;fontColor=#666666;" parent="1" source="3qNBonYtIeFeS5FYhXrz-165" target="3qNBonYtIeFeS5FYhXrz-184" edge="1">
          <mxGeometry relative="1" as="geometry" />
        </mxCell>
        <mxCell id="3qNBonYtIeFeS5FYhXrz-187" style="edgeStyle=orthogonalEdgeStyle;rounded=0;orthogonalLoop=1;jettySize=auto;html=1;strokeColor=#666666;fontColor=#666666;" parent="1" source="3qNBonYtIeFeS5FYhXrz-165" target="3qNBonYtIeFeS5FYhXrz-185" edge="1">
          <mxGeometry relative="1" as="geometry">
            <Array as="points">
              <mxPoint x="619" y="322.5" />
              <mxPoint x="759" y="322.5" />
            </Array>
          </mxGeometry>
        </mxCell>
        <mxCell id="3qNBonYtIeFeS5FYhXrz-165" value="&lt;b&gt;&lt;font color=&quot;#333333&quot;&gt;p_B&lt;/font&gt;&lt;/b&gt;" style="ellipse;whiteSpace=wrap;html=1;aspect=fixed;strokeColor=#d79b00;fillColor=#ffe6cc;" parent="1" vertex="1">
          <mxGeometry x="584" y="212.5" width="70" height="70" as="geometry" />
        </mxCell>
        <mxCell id="3qNBonYtIeFeS5FYhXrz-169" value="&lt;b&gt;&lt;font color=&quot;#333333&quot;&gt;e_3(A)&lt;/font&gt;&lt;/b&gt;" style="ellipse;whiteSpace=wrap;html=1;aspect=fixed;strokeColor=#d79b00;fillColor=#CCFFCC;" parent="1" vertex="1">
          <mxGeometry x="744" y="212.5" width="70" height="70" as="geometry" />
        </mxCell>
        <mxCell id="3qNBonYtIeFeS5FYhXrz-175" value="&lt;b&gt;&lt;font color=&quot;#333333&quot;&gt;e_4(A)&lt;/font&gt;&lt;/b&gt;" style="ellipse;whiteSpace=wrap;html=1;aspect=fixed;strokeColor=#d79b00;fillColor=#CCFFCC;" parent="1" vertex="1">
          <mxGeometry x="274" y="332.5" width="70" height="70" as="geometry" />
        </mxCell>
        <mxCell id="3qNBonYtIeFeS5FYhXrz-184" value="&lt;b&gt;&lt;font color=&quot;#333333&quot;&gt;e_5(A)&lt;/font&gt;&lt;/b&gt;" style="ellipse;whiteSpace=wrap;html=1;aspect=fixed;strokeColor=#d79b00;fillColor=#CCFFCC;" parent="1" vertex="1">
          <mxGeometry x="584" y="362.5" width="70" height="70" as="geometry" />
        </mxCell>
        <mxCell id="3qNBonYtIeFeS5FYhXrz-185" value="&lt;b&gt;&lt;font color=&quot;#333333&quot;&gt;e_6(A)&lt;/font&gt;&lt;/b&gt;" style="ellipse;whiteSpace=wrap;html=1;aspect=fixed;strokeColor=#d79b00;fillColor=#CCFFCC;" parent="1" vertex="1">
          <mxGeometry x="724" y="362.5" width="70" height="70" as="geometry" />
        </mxCell>
        <mxCell id="3qNBonYtIeFeS5FYhXrz-228" style="edgeStyle=orthogonalEdgeStyle;rounded=0;orthogonalLoop=1;jettySize=auto;html=1;strokeColor=#666666;fontColor=#666666;" parent="1" source="3qNBonYtIeFeS5FYhXrz-194" target="3qNBonYtIeFeS5FYhXrz-230" edge="1">
          <mxGeometry relative="1" as="geometry">
            <mxPoint x="-176" y="317.5" as="targetPoint" />
            <Array as="points">
              <mxPoint x="-376" y="65.5" />
              <mxPoint x="-376" y="300.5" />
            </Array>
          </mxGeometry>
        </mxCell>
        <mxCell id="3qNBonYtIeFeS5FYhXrz-194" value="" style="whiteSpace=wrap;html=1;fontColor=#666666;align=left;strokeColor=#D79B00;fillColor=#FFE6CC;" parent="1" vertex="1">
          <mxGeometry x="-739" y="-170" width="300" height="470" as="geometry" />
        </mxCell>
        <mxCell id="3qNBonYtIeFeS5FYhXrz-195" value="p_A" style="text;html=1;fillColor=none;align=center;verticalAlign=middle;whiteSpace=wrap;rounded=0;fontColor=#666666;" parent="1" vertex="1">
          <mxGeometry x="-738.5" y="-170" width="40" height="20" as="geometry" />
        </mxCell>
        <mxCell id="3qNBonYtIeFeS5FYhXrz-196" value="" style="whiteSpace=wrap;html=1;fontColor=#666666;align=center;fillColor=#CCFFCC;strokeColor=#D79B00;" parent="1" vertex="1">
          <mxGeometry x="-719" y="-100" width="120" height="100" as="geometry" />
        </mxCell>
        <mxCell id="3qNBonYtIeFeS5FYhXrz-197" value="&lt;br&gt;" style="whiteSpace=wrap;html=1;fontColor=#666666;align=center;fillColor=#CCFFCC;strokeColor=#D79B00;" parent="1" vertex="1">
          <mxGeometry x="-725" y="65" width="90" height="90" as="geometry" />
        </mxCell>
        <mxCell id="3qNBonYtIeFeS5FYhXrz-198" value="e_1(A)" style="text;html=1;fillColor=none;align=center;verticalAlign=middle;whiteSpace=wrap;rounded=0;fontColor=#666666;" parent="1" vertex="1">
          <mxGeometry x="-719" y="-100" width="40" height="20" as="geometry" />
        </mxCell>
        <mxCell id="3qNBonYtIeFeS5FYhXrz-199" value="e_2(A)" style="text;html=1;fillColor=none;align=center;verticalAlign=middle;whiteSpace=wrap;rounded=0;fontColor=#666666;" parent="1" vertex="1">
          <mxGeometry x="-725" y="65" width="40" height="20" as="geometry" />
        </mxCell>
        <mxCell id="3qNBonYtIeFeS5FYhXrz-200" value="" style="whiteSpace=wrap;html=1;fontColor=#666666;align=center;fillColor=#CCFFCC;strokeColor=#D79B00;" parent="1" vertex="1">
          <mxGeometry x="-586" y="107.5" width="90" height="90" as="geometry" />
        </mxCell>
        <mxCell id="3qNBonYtIeFeS5FYhXrz-201" value="e_3(A)" style="text;html=1;fillColor=none;align=center;verticalAlign=middle;whiteSpace=wrap;rounded=0;fontColor=#666666;" parent="1" vertex="1">
          <mxGeometry x="-586" y="107.5" width="40" height="20" as="geometry" />
        </mxCell>
        <mxCell id="3qNBonYtIeFeS5FYhXrz-203" value="p_B" style="text;html=1;fillColor=none;align=center;verticalAlign=middle;whiteSpace=wrap;rounded=0;fontColor=#666666;" parent="1" vertex="1">
          <mxGeometry x="-738" y="30" width="40" height="20" as="geometry" />
        </mxCell>
        <mxCell id="3qNBonYtIeFeS5FYhXrz-226" style="edgeStyle=orthogonalEdgeStyle;rounded=0;orthogonalLoop=1;jettySize=auto;html=1;strokeColor=#666666;fontColor=#666666;" parent="1" source="3qNBonYtIeFeS5FYhXrz-217" target="3qNBonYtIeFeS5FYhXrz-230" edge="1">
          <mxGeometry relative="1" as="geometry">
            <mxPoint x="-176" y="317.5" as="targetPoint" />
            <Array as="points">
              <mxPoint x="-376" y="560.5" />
              <mxPoint x="-376" y="300.5" />
            </Array>
          </mxGeometry>
        </mxCell>
        <mxCell id="3qNBonYtIeFeS5FYhXrz-217" value="" style="whiteSpace=wrap;html=1;fontColor=#666666;align=left;strokeColor=#D79B00;fillColor=none;" parent="1" vertex="1">
          <mxGeometry x="-739.5" y="327.5" width="300" height="465" as="geometry" />
        </mxCell>
        <mxCell id="3qNBonYtIeFeS5FYhXrz-218" value="" style="whiteSpace=wrap;html=1;fontColor=#666666;align=left;strokeColor=#D79B00;fillColor=#FFE6CC;opacity=70;" parent="1" vertex="1">
          <mxGeometry x="-740" y="527.5" width="300" height="265" as="geometry" />
        </mxCell>
        <mxCell id="3qNBonYtIeFeS5FYhXrz-219" value="p_B" style="text;html=1;fillColor=none;align=center;verticalAlign=middle;whiteSpace=wrap;rounded=0;fontColor=#666666;" parent="1" vertex="1">
          <mxGeometry x="-739" y="527.5" width="40" height="20" as="geometry" />
        </mxCell>
        <mxCell id="3qNBonYtIeFeS5FYhXrz-220" value="&lt;br&gt;" style="whiteSpace=wrap;html=1;fontColor=#666666;align=center;fillColor=#CCFFCC;strokeColor=#D79B00;" parent="1" vertex="1">
          <mxGeometry x="-739" y="687.5" width="90" height="90" as="geometry" />
        </mxCell>
        <mxCell id="3qNBonYtIeFeS5FYhXrz-221" value="e_5(A)" style="text;html=1;fillColor=none;align=center;verticalAlign=middle;whiteSpace=wrap;rounded=0;fontColor=#666666;" parent="1" vertex="1">
          <mxGeometry x="-739" y="687.5" width="40" height="20" as="geometry" />
        </mxCell>
        <mxCell id="3qNBonYtIeFeS5FYhXrz-222" value="&lt;br&gt;" style="whiteSpace=wrap;html=1;fontColor=#666666;align=center;fillColor=#CCFFCC;strokeColor=#D79B00;" parent="1" vertex="1">
          <mxGeometry x="-635" y="687.5" width="90" height="90" as="geometry" />
        </mxCell>
        <mxCell id="3qNBonYtIeFeS5FYhXrz-223" value="" style="whiteSpace=wrap;html=1;fontColor=#666666;align=left;opacity=10;strokeColor=none;fillColor=#000000;" parent="1" vertex="1">
          <mxGeometry x="-739" y="327.5" width="300" height="200" as="geometry" />
        </mxCell>
        <mxCell id="3qNBonYtIeFeS5FYhXrz-250" style="edgeStyle=orthogonalEdgeStyle;rounded=0;orthogonalLoop=1;jettySize=auto;html=1;strokeColor=#666666;fontColor=#666666;" parent="1" source="3qNBonYtIeFeS5FYhXrz-230" target="3qNBonYtIeFeS5FYhXrz-231" edge="1">
          <mxGeometry relative="1" as="geometry" />
        </mxCell>
        <mxCell id="3qNBonYtIeFeS5FYhXrz-230" value="&lt;span&gt;p_A页面上盖上&lt;/span&gt;&lt;br&gt;&lt;span&gt;p_B浮层子页面&lt;/span&gt;" style="rounded=1;whiteSpace=wrap;html=1;strokeColor=#333333;fillColor=none;fontColor=#666666;align=center;" parent="1" vertex="1">
          <mxGeometry x="-306" y="270" width="120" height="60" as="geometry" />
        </mxCell>
        <mxCell id="3qNBonYtIeFeS5FYhXrz-231" value="" style="whiteSpace=wrap;html=1;fontColor=#666666;align=left;strokeColor=#D79B00;fillColor=#FFE6CC;" parent="1" vertex="1">
          <mxGeometry x="-106" y="65" width="300" height="470" as="geometry" />
        </mxCell>
        <mxCell id="3qNBonYtIeFeS5FYhXrz-232" value="p_A" style="text;html=1;fillColor=none;align=center;verticalAlign=middle;whiteSpace=wrap;rounded=0;fontColor=#666666;" parent="1" vertex="1">
          <mxGeometry x="-105.5" y="65" width="40" height="20" as="geometry" />
        </mxCell>
        <mxCell id="3qNBonYtIeFeS5FYhXrz-239" value="p_B" style="text;html=1;fillColor=none;align=center;verticalAlign=middle;whiteSpace=wrap;rounded=0;fontColor=#666666;" parent="1" vertex="1">
          <mxGeometry x="-105" y="265" width="40" height="20" as="geometry" />
        </mxCell>
        <mxCell id="3qNBonYtIeFeS5FYhXrz-253" value="p_B" style="text;html=1;fillColor=none;align=center;verticalAlign=middle;whiteSpace=wrap;rounded=0;fontColor=#666666;" parent="1" vertex="1">
          <mxGeometry x="-105" y="265" width="40" height="20" as="geometry" />
        </mxCell>
        <mxCell id="3qNBonYtIeFeS5FYhXrz-257" value="" style="whiteSpace=wrap;html=1;fontColor=#666666;align=left;opacity=10;strokeColor=none;fillColor=#000000;" parent="1" vertex="1">
          <mxGeometry x="-105" y="65" width="300" height="202.5" as="geometry" />
        </mxCell>
        <mxCell id="3qNBonYtIeFeS5FYhXrz-258" value="e_6(A)" style="text;html=1;fillColor=none;align=center;verticalAlign=middle;whiteSpace=wrap;rounded=0;fontColor=#666666;" parent="1" vertex="1">
          <mxGeometry x="-635" y="687.5" width="40" height="20" as="geometry" />
        </mxCell>
        <mxCell id="3qNBonYtIeFeS5FYhXrz-260" value="&lt;h1&gt;遮挡说明&lt;/h1&gt;&lt;p&gt;1. 遮挡只发生在子page遮挡父page内的element元素，这里是子page p_B会遮挡父page p_A（如果不存在父page，则是顶层element节点）内的元素&lt;/p&gt;&lt;p&gt;2. 子page遮挡父page内元素的时候，忽略子page在父page中的添加顺序&lt;br&gt;&lt;/p&gt;&lt;p&gt;3. p_B子页面的真实可视区域是减去insert.Top的&lt;br&gt;&lt;/p&gt;&lt;p&gt;4. 所以p_B子页面会遮挡e_2, e_3两个元素&lt;/p&gt;&lt;p&gt;5. 目前可见的元素有 e_1, e_5, e_6&lt;br&gt;&lt;/p&gt;&lt;p&gt;6. 可见的page是 p_A, p_B&lt;/p&gt;" style="text;html=1;fillColor=none;spacing=5;spacingTop=-20;whiteSpace=wrap;overflow=hidden;rounded=0;align=left;fontColor=#666666;strokeColor=#000000;dashed=1;" parent="1" vertex="1">
          <mxGeometry x="-346" y="-170" width="430" height="217.5" as="geometry" />
        </mxCell>
        <mxCell id="3qNBonYtIeFeS5FYhXrz-264" value="" style="whiteSpace=wrap;html=1;fontColor=#666666;align=center;fillColor=#CCFFCC;strokeColor=#D79B00;" parent="1" vertex="1">
          <mxGeometry x="-80" y="135" width="120" height="100" as="geometry" />
        </mxCell>
        <mxCell id="3qNBonYtIeFeS5FYhXrz-265" value="&lt;br&gt;" style="whiteSpace=wrap;html=1;fontColor=#666666;align=center;fillColor=#CCFFCC;strokeColor=#D79B00;" parent="1" vertex="1">
          <mxGeometry x="-86" y="300" width="90" height="90" as="geometry" />
        </mxCell>
        <mxCell id="3qNBonYtIeFeS5FYhXrz-266" value="e_1(A)" style="text;html=1;fillColor=none;align=center;verticalAlign=middle;whiteSpace=wrap;rounded=0;fontColor=#666666;" parent="1" vertex="1">
          <mxGeometry x="-80" y="135" width="40" height="20" as="geometry" />
        </mxCell>
        <mxCell id="3qNBonYtIeFeS5FYhXrz-267" value="e_2(A)" style="text;html=1;fillColor=none;align=center;verticalAlign=middle;whiteSpace=wrap;rounded=0;fontColor=#666666;" parent="1" vertex="1">
          <mxGeometry x="-86" y="300" width="40" height="20" as="geometry" />
        </mxCell>
        <mxCell id="3qNBonYtIeFeS5FYhXrz-270" value="" style="whiteSpace=wrap;html=1;fontColor=#666666;align=left;strokeColor=#D79B00;fillColor=#FFE6CC;opacity=70;" parent="1" vertex="1">
          <mxGeometry x="-106" y="270" width="300" height="267.5" as="geometry" />
        </mxCell>
        <mxCell id="3qNBonYtIeFeS5FYhXrz-271" value="&lt;br&gt;" style="whiteSpace=wrap;html=1;fontColor=#666666;align=center;fillColor=#CCFFCC;strokeColor=#D79B00;" parent="1" vertex="1">
          <mxGeometry x="-105" y="425" width="90" height="90" as="geometry" />
        </mxCell>
        <mxCell id="3qNBonYtIeFeS5FYhXrz-272" value="e_5(A)" style="text;html=1;fillColor=none;align=center;verticalAlign=middle;whiteSpace=wrap;rounded=0;fontColor=#666666;" parent="1" vertex="1">
          <mxGeometry x="-105" y="425" width="40" height="20" as="geometry" />
        </mxCell>
        <mxCell id="3qNBonYtIeFeS5FYhXrz-273" value="&lt;br&gt;" style="whiteSpace=wrap;html=1;fontColor=#666666;align=center;fillColor=#CCFFCC;strokeColor=#D79B00;" parent="1" vertex="1">
          <mxGeometry x="-1" y="425" width="90" height="90" as="geometry" />
        </mxCell>
        <mxCell id="3qNBonYtIeFeS5FYhXrz-274" value="e_6(A)" style="text;html=1;fillColor=none;align=center;verticalAlign=middle;whiteSpace=wrap;rounded=0;fontColor=#666666;" parent="1" vertex="1">
          <mxGeometry x="-1" y="425" width="40" height="20" as="geometry" />
        </mxCell>
        <mxCell id="3qNBonYtIeFeS5FYhXrz-275" value="" style="endArrow=classic;startArrow=classic;html=1;strokeColor=#666666;fontColor=#666666;" parent="1" edge="1">
          <mxGeometry width="50" height="50" relative="1" as="geometry">
            <mxPoint x="-496" y="527.5" as="sourcePoint" />
            <mxPoint x="-496" y="327.5" as="targetPoint" />
          </mxGeometry>
        </mxCell>
        <mxCell id="3qNBonYtIeFeS5FYhXrz-276" value="&lt;font color=&quot;#ea6b66&quot;&gt;Top&lt;/font&gt;" style="edgeLabel;html=1;align=center;verticalAlign=middle;resizable=0;points=[];fontColor=#666666;" parent="3qNBonYtIeFeS5FYhXrz-275" vertex="1" connectable="0">
          <mxGeometry x="0.02" y="1" relative="1" as="geometry">
            <mxPoint as="offset" />
          </mxGeometry>
        </mxCell>
        <mxCell id="3qNBonYtIeFeS5FYhXrz-277" value="" style="endArrow=classic;startArrow=classic;html=1;strokeColor=#666666;fontColor=#666666;" parent="1" edge="1">
          <mxGeometry width="50" height="50" relative="1" as="geometry">
            <mxPoint x="144" y="265" as="sourcePoint" />
            <mxPoint x="144" y="65" as="targetPoint" />
          </mxGeometry>
        </mxCell>
        <mxCell id="3qNBonYtIeFeS5FYhXrz-278" value="&lt;font color=&quot;#ea6b66&quot;&gt;Top&lt;/font&gt;" style="edgeLabel;html=1;align=center;verticalAlign=middle;resizable=0;points=[];fontColor=#666666;" parent="3qNBonYtIeFeS5FYhXrz-277" vertex="1" connectable="0">
          <mxGeometry x="0.02" y="1" relative="1" as="geometry">
            <mxPoint as="offset" />
          </mxGeometry>
        </mxCell>
        <mxCell id="3qNBonYtIeFeS5FYhXrz-281" value="&lt;b&gt;&lt;font style=&quot;font-size: 26px&quot;&gt;遮挡：&lt;/font&gt;&lt;/b&gt;" style="text;html=1;strokeColor=none;fillColor=none;align=left;verticalAlign=middle;whiteSpace=wrap;rounded=0;" parent="1" vertex="1">
          <mxGeometry x="-785" y="-1160" width="440" height="50" as="geometry" />
        </mxCell>
        <mxCell id="3qNBonYtIeFeS5FYhXrz-283" style="rounded=0;orthogonalLoop=1;jettySize=auto;html=1;fontColor=#666666;strokeColor=#666666;" parent="1" source="3qNBonYtIeFeS5FYhXrz-284" target="3qNBonYtIeFeS5FYhXrz-297" edge="1">
          <mxGeometry relative="1" as="geometry">
            <mxPoint x="-225" y="-691.086956521739" as="targetPoint" />
          </mxGeometry>
        </mxCell>
        <mxCell id="3qNBonYtIeFeS5FYhXrz-284" value="" style="rounded=0;whiteSpace=wrap;html=1;fontColor=#EA6B66;align=left;dashed=1;" parent="1" vertex="1">
          <mxGeometry x="-715" y="-800" width="420" height="370" as="geometry" />
        </mxCell>
        <mxCell id="3qNBonYtIeFeS5FYhXrz-285" value="" style="rounded=0;whiteSpace=wrap;html=1;fontColor=#EA6B66;align=left;" parent="1" vertex="1">
          <mxGeometry x="-652.5" y="-750" width="295" height="270" as="geometry" />
        </mxCell>
        <mxCell id="3qNBonYtIeFeS5FYhXrz-286" value="" style="endArrow=classic;startArrow=classic;html=1;fontColor=#EA6B66;exitX=0.5;exitY=0;exitDx=0;exitDy=0;entryX=0.5;entryY=0;entryDx=0;entryDy=0;" parent="1" source="3qNBonYtIeFeS5FYhXrz-285" target="3qNBonYtIeFeS5FYhXrz-284" edge="1">
          <mxGeometry width="50" height="50" relative="1" as="geometry">
            <mxPoint x="-515" y="-820" as="sourcePoint" />
            <mxPoint x="-465" y="-870" as="targetPoint" />
          </mxGeometry>
        </mxCell>
        <mxCell id="3qNBonYtIeFeS5FYhXrz-287" value="Top" style="edgeLabel;html=1;align=center;verticalAlign=middle;resizable=0;points=[];fontColor=#EA6B66;" parent="3qNBonYtIeFeS5FYhXrz-286" vertex="1" connectable="0">
          <mxGeometry x="-0.08" y="-3" relative="1" as="geometry">
            <mxPoint x="-3" as="offset" />
          </mxGeometry>
        </mxCell>
        <mxCell id="3qNBonYtIeFeS5FYhXrz-288" value="" style="endArrow=classic;startArrow=classic;html=1;fontColor=#EA6B66;exitX=0.5;exitY=1;exitDx=0;exitDy=0;entryX=0.5;entryY=1;entryDx=0;entryDy=0;" parent="1" source="3qNBonYtIeFeS5FYhXrz-284" target="3qNBonYtIeFeS5FYhXrz-285" edge="1">
          <mxGeometry width="50" height="50" relative="1" as="geometry">
            <mxPoint x="-475" y="-420" as="sourcePoint" />
            <mxPoint x="-475" y="-470" as="targetPoint" />
          </mxGeometry>
        </mxCell>
        <mxCell id="3qNBonYtIeFeS5FYhXrz-289" value="Bottom" style="edgeLabel;html=1;align=center;verticalAlign=middle;resizable=0;points=[];fontColor=#EA6B66;" parent="3qNBonYtIeFeS5FYhXrz-288" vertex="1" connectable="0">
          <mxGeometry x="-0.08" y="-3" relative="1" as="geometry">
            <mxPoint x="-3" as="offset" />
          </mxGeometry>
        </mxCell>
        <mxCell id="3qNBonYtIeFeS5FYhXrz-290" value="" style="endArrow=classic;startArrow=classic;html=1;fontColor=#EA6B66;exitX=1;exitY=0.5;exitDx=0;exitDy=0;entryX=1;entryY=0.5;entryDx=0;entryDy=0;" parent="1" source="3qNBonYtIeFeS5FYhXrz-284" target="3qNBonYtIeFeS5FYhXrz-285" edge="1">
          <mxGeometry width="50" height="50" relative="1" as="geometry">
            <mxPoint x="-265" y="-570" as="sourcePoint" />
            <mxPoint x="-265" y="-620" as="targetPoint" />
          </mxGeometry>
        </mxCell>
        <mxCell id="3qNBonYtIeFeS5FYhXrz-291" value="Right" style="edgeLabel;html=1;align=center;verticalAlign=middle;resizable=0;points=[];fontColor=#EA6B66;" parent="3qNBonYtIeFeS5FYhXrz-290" vertex="1" connectable="0">
          <mxGeometry x="-0.08" y="-3" relative="1" as="geometry">
            <mxPoint x="-3" as="offset" />
          </mxGeometry>
        </mxCell>
        <mxCell id="3qNBonYtIeFeS5FYhXrz-292" value="" style="endArrow=classic;startArrow=classic;html=1;fontColor=#EA6B66;" parent="1" edge="1">
          <mxGeometry width="50" height="50" relative="1" as="geometry">
            <mxPoint x="-650" y="-615" as="sourcePoint" />
            <mxPoint x="-715" y="-615" as="targetPoint" />
          </mxGeometry>
        </mxCell>
        <mxCell id="3qNBonYtIeFeS5FYhXrz-293" value="Left" style="edgeLabel;html=1;align=center;verticalAlign=middle;resizable=0;points=[];fontColor=#EA6B66;" parent="3qNBonYtIeFeS5FYhXrz-292" vertex="1" connectable="0">
          <mxGeometry x="-0.08" y="-3" relative="1" as="geometry">
            <mxPoint x="-3" as="offset" />
          </mxGeometry>
        </mxCell>
        <mxCell id="3qNBonYtIeFeS5FYhXrz-294" value="真实可见区域" style="text;html=1;strokeColor=none;fillColor=none;align=left;verticalAlign=middle;whiteSpace=wrap;rounded=0;fontColor=#EA6B66;" parent="1" vertex="1">
          <mxGeometry x="-645" y="-740" width="80" height="20" as="geometry" />
        </mxCell>
        <mxCell id="3qNBonYtIeFeS5FYhXrz-295" value="A: (page/element)的Frame" style="text;html=1;strokeColor=none;fillColor=none;align=left;verticalAlign=middle;whiteSpace=wrap;rounded=0;fontColor=#EA6B66;" parent="1" vertex="1">
          <mxGeometry x="-705" y="-790" width="160" height="20" as="geometry" />
        </mxCell>
        <mxCell id="3qNBonYtIeFeS5FYhXrz-297" value="&lt;h1&gt;A的真实可见区域&lt;/h1&gt;&lt;p&gt;1. A的frame剔除掉上下左右四周的margin&lt;br&gt;&lt;/p&gt;&lt;p&gt;2. Top/Left/Bottom/Right: 负数表示可见区域超出frame&lt;/p&gt;" style="text;html=1;strokeColor=none;fillColor=none;spacing=5;spacingTop=-20;whiteSpace=wrap;overflow=hidden;rounded=0;align=left;fontColor=#666666;" parent="1" vertex="1">
          <mxGeometry x="-185" y="-810" width="295" height="110" as="geometry" />
        </mxCell>
        <mxCell id="3qNBonYtIeFeS5FYhXrz-298" value="&lt;b&gt;&lt;font style=&quot;font-size: 16px&quot;&gt;Insets:&lt;/font&gt;&lt;/b&gt;" style="text;html=1;strokeColor=none;fillColor=none;align=left;verticalAlign=middle;whiteSpace=wrap;rounded=0;dashed=1;fontColor=#666666;" parent="1" vertex="1">
          <mxGeometry x="-770" y="-860" width="200" height="20" as="geometry" />
        </mxCell>
        <mxCell id="3qNBonYtIeFeS5FYhXrz-301" value="&lt;span style=&quot;font-size: 16px&quot;&gt;&lt;b&gt;举例子:&lt;/b&gt;&lt;/span&gt;" style="text;html=1;strokeColor=none;fillColor=none;align=left;verticalAlign=middle;whiteSpace=wrap;rounded=0;dashed=1;fontColor=#666666;" parent="1" vertex="1">
          <mxGeometry x="-786" y="-240" width="200" height="20" as="geometry" />
        </mxCell>
        <mxCell id="qO7bGKCvVDHLT_S1F4Xk-1" value="&lt;h1&gt;&lt;font color=&quot;#333333&quot;&gt;规则&lt;/font&gt;&lt;/h1&gt;&lt;p&gt;1. A的frame剔除掉上下左右四周的margin&lt;br&gt;&lt;/p&gt;&lt;p&gt;2. Top/Left/Bottom/Right: 负数表示可见区域超出frame&lt;/p&gt;" style="text;html=1;strokeColor=none;fillColor=none;spacing=5;spacingTop=-20;whiteSpace=wrap;overflow=hidden;rounded=0;align=left;fontColor=#666666;" parent="1" vertex="1">
          <mxGeometry x="-785" y="-1110" width="295" height="110" as="geometry" />
        </mxCell>
        <mxCell id="3qNBonYtIeFeS5FYhXrz-268" value="" style="whiteSpace=wrap;html=1;fontColor=#666666;align=center;fillColor=#CCFFCC;strokeColor=#D79B00;" parent="1" vertex="1">
          <mxGeometry x="53" y="342.5" width="90" height="90" as="geometry" />
        </mxCell>
        <mxCell id="3qNBonYtIeFeS5FYhXrz-269" value="e_3(A)" style="text;html=1;fillColor=none;align=center;verticalAlign=middle;whiteSpace=wrap;rounded=0;fontColor=#666666;" parent="1" vertex="1">
          <mxGeometry x="53" y="342.5" width="40" height="20" as="geometry" />
        </mxCell>
      </root>
    </mxGraphModel>
  </diagram>
</mxfile>
